# ProBuilder 4.5.2
# https://unity3d.com/unity/features/worldbuilding/probuilder
# 10/21/2021 1:55:52 PM

mtllib ./LetterD.mtl
o LetterD

g LetterB (1)
v -17.4 0 4.571673
v -18.4 0 4.571673
v -17.4 1 4.571673
v -18.4 1 4.571673
v -18.4 0 0
v -17.4 0 0
v -18.4 1 0
v -17.4 1 0
v -17.4 1 2.505676
v -17.4 1 1.817835
v -17.4 0 1.817835
v -17.4 0 2.505676
v -18.4 1 1.817835
v -18.4 1 2.505676
v -18.4 0 1.817835
v -18.4 0 2.505676
v -20.14868 1 1.817835
v -20.14868 0 1.817835
v -20.14868 0 2.505676
v -20.14868 1 2.505676
v -18.4 0 3.674876
v -18.4 1 3.674876
v -17.4 1 3.674876
v -17.4 0 3.674876
v -20.02264 1 3.674876
v -20.02264 0 3.674876
v -20.02264 0 4.571673
v -20.02264 1 4.571673
v -18.4 0 0.7067024
v -18.4 1 0.7067024
v -20.05724 0 0.675561
v -20.05724 0 -0.03114128
v -20.05724 1 -0.03114128
v -20.05724 1 0.675561
v -17.4 1 0.7067024
v -17.4 0 0.7067024
v -20.41424 1 3.674876
v -20.41424 1 1.820862
v -20.02264 1 1.820862
v -20.66828 1 3.674876
v -20.65759 1 1.820862
v -20.02264 1 -0.03315139
v -20.02264 0 -0.03315139
v -19.76334 1 -0.03315139
v -19.76334 0 -0.03315139
v -19.76334 0 3.674876
v -19.76334 1 3.674876
v -19.76334 1 1.820862
v -20.66763 0 4.525785
v -20.66828 0 4.399005
v -20.66828 1 4.399005
v -20.66763 1 4.525785
v -20.66828 0 3.674876
v -17.4 1 4.399005
v -17.4 0 4.399005
v -18.4 1 4.399005
v -18.4 0 4.399005
v -20.02264 0 4.399005
v -20.02264 1 4.399005
v -20.53316 0 4.571673
v -20.53316 1 4.571673
v -20.53316 0 3.674876
v -20.50159 0 -0.01223803
v -20.60513 0 0.008675635
v -20.41424 1 -0.03315139
v -20.59445 1 0.008675635
v -20.53316 0 4.399005
v -20.53316 1 4.399005
v -19.76334 1 0.1381702
v -20.41424 1 0.1381702
v -20.62602 1 0.1590838
v -20.02264 1 0.1381702
v -19.79294 0.06510159 1.803536
v -19.79294 0.06510159 2.491377

vt 0 0
vt -1 0
vt 0 1
vt -1 1
vt 1 0
vt 1 1
vt -1.505676 1
vt -0.8178351 1
vt -0.8178351 0
vt -1.505676 0
vt 1 0.8178351
vt 0 0.8178351
vt 0 1.505676
vt 1 1.505676
vt -1 0.8178351
vt -1 1.505676
vt 0.8178351 1
vt 0.8178351 0
vt 1.505676 0
vt 1.505676 1
vt 2.674876 0
vt 2.674876 1
vt -2.674876 1
vt -2.674876 0
vt 0 2.674876
vt 1 2.674876
vt -1 2.674876
vt 2.622643 1
vt 2.622643 0
vt -0.6048747 1
vt -0.6048747 0
vt -2.217857 0
vt -2.217857 1
vt -0.2932976 0
vt -0.2932976 1
vt -0.324439 0
vt -1.031141 0
vt -1.031141 1
vt -0.324439 1
vt 0.2932976 1
vt 0.2932976 0
vt 1 -1
vt 0 -1
vt 0 -0.2932976
vt 1 -0.2932976
vt -1 -1
vt -1 -0.2932976
vt -2.657241 -0.324439
vt -2.657241 -1.031141
vt -1.005334 1
vt -1.005334 0
vt -2.662868 1
vt -2.662868 0
vt 1.018611 0
vt 1.018611 1
vt 2.676145 0
vt 2.676145 1
vt 2.657241 -1.031141
vt 2.657241 -0.324439
vt 2.622643 2.674876
vt 3.014243 2.674876
vt 3.014243 0.8208621
vt 2.622643 0.8208622
vt 3.268277 2.674876
vt 3.25759 0.8208622
vt 2.363339 1
vt 2.363339 0
vt -2.622643 -1.033151
vt -2.622643 2.674876
vt -2.363339 -1.033151
vt -2.363339 2.674876
vt -2.622643 0
vt -2.622643 1
vt -2.363339 0
vt -2.363339 1
vt 2.363339 2.674876
vt 2.363339 0.8208622
vt 3.517404 0
vt 3.390623 0
vt 3.390623 1
vt 3.517404 1
vt 2.666496 0
vt 2.666496 1
vt -3.571673 0
vt -3.571673 1
vt -3.399005 1
vt -3.399005 0
vt 0 3.399005
vt 1 3.399005
vt 0 3.571673
vt 1 3.571673
vt -1 3.399005
vt -1 3.571673
vt -2.622643 3.399005
vt -2.622643 3.571673
vt 2.622643 3.399005
vt 2.622643 3.571673
vt -2.725332 0
vt -2.725332 1
vt -2.864001 0
vt -2.864001 1
vt -3.268277 2.674876
vt -3.133158 2.674876
vt -3.101587 -1.012238
vt -3.205135 -0.9913244
vt 2.944217 1.005991
vt 3.126674 1.005841
vt 3.13734 0.00585616
vt 3.032692 0.0059273
vt 2.553375 0.005883506
vt 2.553375 1.005871
vt -3.268277 3.399005
vt -3.133158 3.399005
vt -3.267627 3.525785
vt -3.133158 3.571673
vt 3.133158 3.399005
vt 3.268277 3.399005
vt 3.133158 3.571673
vt 3.267627 3.525785
vt -0.8208622 1
vt 0.8618298 1
vt 1.033151 1
vt 1.033151 -6.536779E-14
vt 3.194448 -0.9913244
vt 3.014243 -1.033151
vt 3.014243 -0.8618298
vt 3.226018 -0.8409162
vt 2.622643 -0.8618298
vt 2.622643 -1.033151
vt 2.730894 1.023264
vt 2.730894 0.02328972
vt -0.9358495 0.02329083
vt -0.936034 1.023188
vt -0.7851033 1.023397
vt 0.8769724 1.023418
vt 2.363339 -0.8618298
vt 2.363339 -1.033151
vt -2.342129 0.8035362
vt -2.703773 0.8178351
vt -2.703773 1.505676
vt -2.342129 1.491377

vn 0 0 1
vn 0 0 -1
vn 1 0 0
vn 0 1 0
vn 0 -1 0
vn -1 0 0
vn -0.01878779 0 0.9998235
vn 0.01878772 0 -0.9998235
vn -0.9999869 0 0.005122602
vn -0.3229654 0 0.9464107
vn -0.1413562 -0.007233383 -0.9846953
vn -0.2260964 0.002416264 -0.9741019
vn -0.2120343 -0.0003956797 -0.9771522
vn -0.08053203 -0.008038805 -0.9930106
vn -0.04362401 0 -0.999048
vn -0.02181201 -0.01045439 -0.9994147
vn -0.9999834 0 -0.005764088
vn -0.9998049 -0.01061814 -0.01149017
vn -0.9926345 -0.009599246 -0.0805397
vn -0.9786199 0.01045839 -0.2054108
vn -0.9891386 -0.003780728 -0.1122014
vn -0.9997556 -0.01308538 -0.01399079
vn 0.1800161 -0.9836637 0

usemtl COLORVERDE
f 64/108/13 66/107/12 65/106/11
f 65/106/11 63/109/14 64/108/13
f 63/109/14 65/106/11 42/111/16
f 43/110/15 63/109/14 42/111/16
f 37/61/4 40/64/4 51/117/4
f 68/116/4 37/61/4 51/117/4
f 37/61/4 68/116/4 25/60/4
f 68/116/4 59/96/4 25/60/4
f 45/123/3 44/122/3 69/121/3
f 69/121/3 48/120/3 45/123/3
f 45/123/3 48/120/3 46/24/3
f 47/23/3 46/24/3 48/120/3
f 40/130/17 41/135/22 53/131/18
f 41/135/22 64/132/19 53/131/18
f 41/135/22 71/134/21 64/132/19
f 71/134/21 66/133/20 64/132/19
f 4/4/1 2/2/1 1/1/1
f 1/1/1 3/3/1 4/4/1
f 8/3/2 6/1/2 5/5/2
f 5/5/2 7/6/2 8/3/2
f 11/9/3 10/8/3 9/7/3
f 9/7/3 12/10/3 11/9/3
f 11/12/5 12/13/5 16/16/5
f 16/16/5 15/15/5 11/12/5
f 17/17/6 18/18/6 19/19/6
f 19/19/6 20/20/6 17/17/6
f 14/20/6 16/19/6 21/21/6
f 21/21/6 22/22/6 14/20/6
f 12/10/3 9/7/3 23/23/3
f 23/23/3 24/24/3 12/10/3
f 12/13/5 24/25/5 21/27/5
f 21/27/5 16/16/5 12/13/5
f 25/28/2 22/6/2 21/5/2
f 21/5/2 26/29/2 25/28/2
f 28/33/1 27/32/1 2/31/1
f 2/31/1 4/30/1 28/33/1
f 30/35/6 29/34/6 15/18/6
f 15/18/6 13/17/6 30/35/6
f 33/38/6 32/37/6 31/36/6
f 31/36/6 34/39/6 33/38/6
f 36/41/3 35/40/3 10/8/3
f 10/8/3 11/9/3 36/41/3
f 6/5/3 8/6/3 35/40/3
f 35/40/3 36/41/3 6/5/3
f 6/43/5 36/44/5 29/47/5
f 29/47/5 5/46/5 6/43/5
f 36/44/5 11/12/5 15/15/5
f 15/15/5 29/47/5 36/44/5
f 32/49/5 5/46/5 29/47/5
f 29/47/5 31/48/5 32/49/5
f 31/53/7 29/51/7 30/50/7
f 30/50/7 34/52/7 31/53/7
f 33/57/8 7/55/8 5/54/8
f 5/54/8 32/56/8 33/57/8
f 34/59/4 30/45/4 7/42/4
f 7/42/4 33/58/4 34/59/4
f 25/60/4 39/63/4 38/62/4
f 38/62/4 37/61/4 25/60/4
f 37/61/4 38/62/4 41/65/4
f 41/65/4 40/64/4 37/61/4
f 45/67/2 43/29/2 42/28/2
f 42/28/2 44/66/2 45/67/2
f 46/71/5 26/69/5 43/68/5
f 43/68/5 45/70/5 46/71/5
f 47/75/1 25/73/1 26/72/1
f 26/72/1 46/74/1 47/75/1
f 48/77/4 39/63/4 25/60/4
f 25/60/4 47/76/4 48/77/4
f 51/80/9 50/79/9 49/78/9
f 49/78/9 52/81/9 51/80/9
f 40/83/6 53/82/6 50/79/6
f 50/79/6 51/80/6 40/83/6
f 55/87/3 54/86/3 3/85/3
f 3/85/3 1/84/3 55/87/3
f 24/24/3 23/23/3 54/86/3
f 54/86/3 55/87/3 24/24/3
f 24/25/5 55/88/5 57/92/5
f 57/92/5 21/27/5 24/25/5
f 55/88/5 1/90/5 2/93/5
f 2/93/5 57/92/5 55/88/5
f 57/92/5 58/94/5 26/69/5
f 26/69/5 21/27/5 57/92/5
f 2/93/5 27/95/5 58/94/5
f 58/94/5 57/92/5 2/93/5
f 56/89/4 22/26/4 25/60/4
f 25/60/4 59/96/4 56/89/4
f 4/91/4 56/89/4 59/96/4
f 59/96/4 28/97/4 4/91/4
f 61/99/1 60/98/1 27/32/1
f 27/32/1 28/33/1 61/99/1
f 52/101/10 49/100/10 60/98/10
f 60/98/10 61/99/10 52/101/10
f 64/105/5 63/104/5 62/103/5
f 62/103/5 53/102/5 64/105/5
f 26/69/5 62/103/5 63/104/5
f 63/104/5 43/68/5 26/69/5
f 67/113/5 50/112/5 53/102/5
f 53/102/5 62/103/5 67/113/5
f 58/94/5 67/113/5 62/103/5
f 62/103/5 26/69/5 58/94/5
f 60/115/5 49/114/5 50/112/5
f 50/112/5 67/113/5 60/115/5
f 27/95/5 60/115/5 67/113/5
f 67/113/5 58/94/5 27/95/5
f 61/118/4 68/116/4 51/117/4
f 51/117/4 52/119/4 61/118/4
f 28/97/4 59/96/4 68/116/4
f 68/116/4 61/118/4 28/97/4
f 70/126/4 65/125/4 66/124/4
f 66/124/4 71/127/4 70/126/4
f 38/62/4 70/126/4 71/127/4
f 71/127/4 41/65/4 38/62/4
f 72/128/4 70/126/4 38/62/4
f 38/62/4 39/63/4 72/128/4
f 42/129/4 65/125/4 70/126/4
f 70/126/4 72/128/4 42/129/4
f 48/77/4 69/136/4 72/128/4
f 72/128/4 39/63/4 48/77/4
f 69/136/4 44/137/4 42/129/4
f 42/129/4 72/128/4 69/136/4
f 74/141/23 19/140/23 18/139/23
f 18/139/23 73/138/23 74/141/23
f 13/17/6 15/18/6 16/19/6
f 16/19/6 14/20/6 13/17/6

usemtl COLORVERDE
f 14/14/4 9/13/4 10/12/4 13/11/4
f 22/26/4 23/25/4 9/13/4 14/14/4
f 30/45/4 35/44/4 8/43/4 7/42/4
f 13/11/4 10/12/4 35/44/4 30/45/4
f 56/89/4 54/88/4 23/25/4 22/26/4
f 4/91/4 3/90/4 54/88/4 56/89/4

