# ProBuilder 4.5.2
# https://unity3d.com/unity/features/worldbuilding/probuilder
# 10/21/2021 2:05:52 PM

mtllib ./LetterW.mtl
o LetterW

g LetterW
v -132.9136 0 1.022714
v -132.6642 0 0.5584438
v -132.9136 1 1.022714
v -132.6642 1 0.5584438
v -131.9885 0 -0.00454855
v -131.6397 0 1.047745
v -131.9885 1 -0.00454855
v -131.6397 1 1.047745
v -129.9661 0 4.663861
v -130.8821 0 4.663861
v -130.8821 1 4.663861
v -129.9661 1 4.663861
v -134.0341 0 4.638913
v -134.5256 0 4.683913
v -134.5256 1 4.683913
v -134.0341 1 4.638913
v -132.3579 0 0
v -132.3579 1 0
v -132.3579 1 1
v -132.3579 0 1
v -132.9518 0 2.178412
v -133.6186 0 2.462207
v -133.8173 0 2.92915
v -133.3098 0 2.973025
v -133.8173 1 2.94796
v -133.6186 1 2.481016
v -133.37 1.196391 2.899725
v -132.7007 1.012847 4.813317
v -132.0083 1.012847 4.82478
v -131.9673 0 4.871112
v -132.5984 0 4.818715
v -132.9518 1 2.178412
v -133.2561 0 1.721856
v -132.7164 0 1.69357
v -134.5043 0.00413537 -0.04185891
v -133.9231 0.00413537 -0.02759528
v -133.9231 1.004135 -0.02759528
v -134.5043 1.004135 -0.02304935
v -133.2561 1 1.721856
v -132.7164 1 1.69357
v -133.7741 0.002067685 0.2691482
v -134.2459 0.002067685 0.6321919
v -134.2459 1.002068 0.6510015
v -135.8042 -0.001298785 4.733227
v -136.3629 0.0007688999 4.750767
v -136.3629 1.000769 4.769576
v -135.8042 0.9987012 4.752037
v -133.7741 1.002068 0.2691482

vt 0.6039068 0
vt 0.0768622 0
vt 0.6039068 1
vt 0.0768622 1
vt 1.050595 0
vt -0.05800951 0
vt 1.050595 1
vt -0.05800951 1
vt 1.713882 0
vt 0.7978592 0
vt 0.7978592 1
vt 1.713882 1
vt -2.676047 0
vt -3.169619 0
vt -3.169619 1
vt -2.676047 1
vt 0.6164472 0
vt 0.06642647 0
vt 0.06642647 1
vt 0.6164472 1
vt -0.2526416 0
vt -0.2526416 1
vt -0.04032898 0.04774487
vt 0.6779404 0
vt 0.6779404 -1
vt 0.3085022 -1.004549
vt 1.233635 0.02271366
vt 0.9841766 -0.4415562
vt -0.3085022 -1.004549
vt -0.6779404 -1
vt -0.6779404 0
vt 0.04032898 0.04774487
vt -0.9841766 -0.4415562
vt -1.233635 0.02271366
vt 1.713882 3.663861
vt 0.7978592 3.663861
vt -0.2532973 0
vt -0.2532973 1
vt 3.696622 0
vt 3.696622 1
vt -0.06026788 1
vt -0.06026788 0
vt -4.044873 1
vt -4.044873 0
vt -0.7978592 3.663861
vt -1.713882 3.663861
vt -1.27179 1.178412
vt -1.938568 1.462207
vt -2.137329 1.92915
vt -1.629761 1.973025
vt -2.845596 3.683913
vt -2.35408 3.638913
vt 4.517229 -0.005400033
vt 2.625783 -0.005674707
vt 2.643005 0.9943501
vt 4.517229 0.9945884
vt 2.11833 -0.00570253
vt 2.135552 0.9943222
vt -4.289765 0
vt -4.289765 1
vt -2.43224 1.196391
vt -2.473629 0
vt -0.9574788 0.9988381
vt -0.2649248 0.9988381
vt -0.2232394 -0.01416869
vt -0.8550628 -0.01401534
vt 2.235938 3.690781
vt 2.724732 3.738045
vt 2.020388 2.0005
vt 1.554943 1.958941
vt 1.822728 1.533089
vt 1.159642 1.227655
vt 1.254902 0.05570836
vt 1.164826 1.252472
vt 3.232935 0.05570836
vt 3.191093 1.070576
vt 2.011842 1.917633
vt 1.550656 1.195754
vt 1.321974 3.832726
vt 0.67817 3.854275
vt -0.6828759 1
vt -0.6828759 0
vt -3.49241 1.012847
vt -3.549794 0
vt -0.2873535 3.871112
vt -0.918396 3.818715
vt -1.576096 0.7218558
vt -1.036453 0.6935704
vt 2.849036 -0.01414428
vt 2.267654 -0.01414428
vt 2.267654 0.9856789
vt 2.848575 0.9860324
vt 1.294717 -0.005538437
vt 0.5168805 -0.005382756
vt 0.5168805 0.9946057
vt 1.294717 0.99445
vt -1.602133 0
vt -1.602133 1
vt -1.06331 1
vt -1.06331 0
vt -0.2833793 1
vt -0.2833793 0
vt 1.462263 0.7729846
vt 0.9256094 0.7421924
vt 1.121699 0.07293237
vt 0.5690822 0.04763104
vt -2.094069 -0.7308392
vt -2.565899 -0.3677934
vt -2.243121 -1.027586
vt -2.824327 -1.041845
vt 0.7723638 1.014096
vt 0.7545707 0.014077
vt -1.179984 0.01614473
vt -1.162191 1.016163
vt -4.239128 0.06641565
vt -4.798012 0.06848371
vt -4.798601 1.06866
vt -4.239717 1.066592
vt -0.04420356 0
vt -0.04420356 1
vt 1.495172 1.002068
vt 1.495172 0.002067685
vt 1.826617 1.004135
vt 1.826617 0.00413537
vt 1.576554 0.7197742
vt 1.939027 1.478934
vt 2.566362 -0.3510811
vt 2.09453 -0.7329341
vt 2.824786 -1.025135
vt 2.243579 -1.029681
vt -0.5851796 0.985192
vt -0.5675966 -0.01483032
vt -4.972314 0.9818255
vt -4.954731 -0.01819687
vt 2.827392 -1.024931
vt 2.568964 -0.3508787
vt 4.685908 3.767703
vt 4.127296 3.750165
vt -4.12423 3.733246
vt -4.682843 3.750785
vt 0.04976316 -0.01633386
vt 0.06730028 0.9836892
vt 5.190135 -0.01970041
vt 5.207672 0.9803227

vn -0.8808931 0 -0.4733154
vn 0.9492052 0 -0.3146578
vn 0 0 1
vn 0.09117326 0 0.9958351
vn -0.8768171 0 -0.4808241
vn -0.01231114 0 -0.9999242
vn 0 1 0
vn 0 -1 0
vn -0.9275787 0 0.3736278
vn 0.9075219 0 -0.4200048
vn -0.9265954 0.003520001 -0.3760222
vn -0.9272899 0.007040001 -0.3742779
vn -0.9259009 0 -0.3777666
vn -0.9200858 0.007366716 -0.3916475
vn 0.9245043 0.03523292 0.3772179
vn 0.9342223 0 0.3566915
vn 0.9147863 0.07046585 0.3977443
vn -0.01655191 0.003656119 0.9998564
vn -0.04961313 0.02293119 0.9977694
vn -0.08267435 0.04220626 0.9956825
vn -0.2030935 0.9561527 -0.02603309
vn -0.4061869 0.9123055 -0.05206618
vn -0.4115907 0.8943703 -0.1751994
vn -0.2834893 0.9104946 -0.2587955
vn -0.1553879 0.9266189 -0.3423916
vn -0.9328029 -0.02497815 0.3595204
vn -0.9376769 -0.05925342 0.3401114
vn -0.942551 -0.0935287 0.3207025
vn 0.3679395 0.9290067 -0.0395866
vn 0.1840101 0.9644974 -0.02223491
vn 8.08384E-05 0.9999881 -0.004883231
vn 0.9419244 0 -0.3358251
vn 0.9404467 0.01111794 -0.3395535
vn 0.9389691 0.02223589 -0.3432818
vn 0.02452966 0.01880057 -0.9995223
vn 0.008354187 0.009400287 -0.9997458
vn -0.007821286 0 -0.9999694
vn -0.8980507 0 -0.439892
vn 0.8996233 0 0.4366666
vn 0.888338 0 0.4591901
vn -0.001357369 -0.9999989 -0.0006645618
vn -0.0008593873 -0.999999 -0.001116909
vn -0.003866832 -0.9999799 -0.005025555
vn -0.001895418 -0.9999876 -0.004061114
vn 7.599662E-05 -0.9999952 -0.003096672
vn -0.9459462 -0.006099305 0.3242663
vn 0.03130801 -0.01879725 0.999333
vn 0.8936113 0 -0.4488417
vn 0.001135692 0.9999989 0.0008811344
vn 0.0008939418 0.999999 0.001104588
vn 0.002016597 0.9999875 0.004006187
vn 2.392108E-05 0.9999954 0.003058366
vn 0.004009273 0.9999797 0.004954009
vn 0.9347678 -0.006681085 0.3551963
vn 0.003066875 0.9999935 0.001891728
vn 0.003419554 0.9999919 0.002073006
vn 0.003772232 0.9999903 0.002254283
vn -0.002943046 -0.9999938 -0.001939204
vn -0.003356226 -0.9999922 -0.002051683
vn -0.003769407 -0.9999906 -0.002164162
vn -0.9323302 0.006800487 -0.3615442

usemtl COLORVERDE
f 3/3/1 4/4/1 2/2/1 1/1/1
f 7/7/2 8/8/2 6/6/2 5/5/2
f 12/12/3 11/11/3 10/10/3 9/9/3
f 16/16/4 15/15/4 14/14/4 13/13/4
f 2/17/5 4/20/5 18/19/5 17/18/5
f 17/18/6 18/19/6 7/22/6 5/21/6
f 19/24/7 8/23/7 7/26/7 18/25/7
f 3/27/7 19/24/7 18/25/7 4/28/7
f 5/29/8 6/32/8 20/31/8 17/30/8
f 17/30/8 20/31/8 1/34/8 2/33/8
f 9/35/8 10/36/8 20/31/8 6/32/8
f 10/39/9 11/40/9 19/38/9 20/37/9
f 12/43/10 9/44/10 6/42/10 8/41/10
f 11/45/7 12/46/7 8/23/7 19/24/7
f 24/50/8 23/49/8 22/48/8 21/47/8
f 13/52/8 14/51/8 23/49/8 24/50/8
f 15/56/13 25/55/11 23/54/12 14/53/11
f 25/55/14 26/58/14 22/57/14 23/54/14
f 24/62/17 27/61/15 16/60/16 13/59/15
f 30/65/20 29/64/19 28/63/18 31/66/19
f 27/70/22 25/69/21 15/68/7 16/67/21
f 32/72/25 26/71/24 25/69/23 27/70/24
f 31/75/27 28/76/28 27/74/27 24/73/26
f 28/79/30 29/80/31 32/78/30 27/77/29
f 29/83/33 30/84/34 21/82/33 32/81/32
f 30/85/8 31/86/8 24/50/8 21/47/8
f 33/87/8 1/34/8 20/31/8 34/88/8
f 22/48/8 33/87/8 34/88/8 21/47/8
f 38/92/36 37/91/37 36/90/36 35/89/35
f 39/96/38 3/95/38 1/94/38 33/93/38
f 34/100/39 40/99/39 32/98/39 21/97/39
f 20/102/40 19/101/40 40/99/40 34/100/40
f 32/72/7 40/104/7 39/103/7 26/71/7
f 40/104/7 19/106/7 3/105/7 39/103/7
f 42/108/41 41/107/42 33/87/41 22/48/41
f 42/108/44 35/110/45 36/109/44 41/107/43
f 43/114/46 42/113/46 22/112/46 26/111/46
f 46/117/47 45/116/47 44/115/47 47/118/47
f 39/120/32 33/119/32 41/122/32 48/121/32
f 48/121/48 41/122/48 36/124/48 37/123/48
f 26/126/49 39/125/49 48/128/50 43/127/49
f 43/127/51 48/128/53 37/130/51 38/129/52
f 47/133/54 44/134/54 42/132/54 43/131/54
f 46/137/56 47/138/57 43/136/56 38/135/55
f 44/139/59 45/140/60 35/110/59 42/108/58
f 45/143/61 46/144/61 38/142/61 35/141/61

