# ProBuilder 4.5.2
# https://unity3d.com/unity/features/worldbuilding/probuilder
# 10/21/2021 2:07:26 PM

mtllib ./LetterZ.mtl
o LetterZ

g LetterZ
v -152.3887 0 2.568937
v -151.9814 0 1.968897
v -152.3887 1 2.568937
v -151.9814 1 1.968897
v -151.7436 0.02769798 3.096384
v -151.8432 0 3.239017
v -151.7586 1.027698 3.101186
v -151.8432 1 3.239017
v -151.8932 0 3.326085
v -151.8932 1 3.326085
v -151.4319 0 2.441122
v -151.4469 1 2.445924
v -152.6684 0 4.668169
v -153.5173 0 4.651852
v -153.5173 1 4.651852
v -152.6684 1 4.668169
v -152.3937 0 2.558178
v -152.3937 1 2.558178
v -150.1698 0 0.0605427
v -150.1698 1 0.0605427
v -150.9733 1 -0.00289011
v -150.9733 0 -0.00289011
v -152.0306 1 2.004148
v -152.0306 0 2.004148
v -150.6018 1 0.8275893
v -150.5943 0 0.8251882
v -151.4048 1 0.7696977
v -151.4048 0 0.7696977
v -153.7142 -0.1512303 0.7774045
v -153.2828 -0.1512303 0.004816771
v -153.2828 0.8487697 0.004816771
v -153.7142 0.8487697 0.7774045
v -153.1496 0 3.938473
v -152.2529 0 3.913829
v -153.1496 1 3.938473
v -152.2529 1 3.913829
v -149.9909 0 3.904982
v -150.4063 0 4.659322
v -150.4063 1 4.659322
v -149.9909 1 3.904982

vt 1.218759 0
vt 0.4935307 0
vt 1.218759 1
vt 0.4935307 1
vt -1.265274 0.0100769
vt -1.439272 -0.01762234
vt -1.277824 1.010122
vt -1.439272 0.9823322
vt -2.206652 0
vt -2.295833 0
vt -2.295833 1
vt -2.206652 1
vt -0.4016211 -0.01049213
vt -1.104282 0.0161302
vt -1.117596 1.016163
vt -0.4149342 0.9895404
vt -1.503001 1.087441
vt -0.7777627 1.051297
vt -1.775731 1.048392
vt -1.675443 1.051297
vt -0.06784859 0
vt -0.9169434 0
vt -0.9169434 1
vt -0.06784859 1
vt -1.550676 0
vt -1.561206 0
vt -1.561206 1
vt -1.550676 1
vt -2.27893 0
vt -2.27893 1
vt -1.472902 1
vt -1.472902 0
vt -0.4502274 0.9938825
vt -0.3916514 0.9937927
vt -0.3916514 -0.006189751
vt -0.4502274 -0.006099964
vt 0 0
vt -0.663679 0.5807997
vt -1.322515 0.5365356
vt -0.6098188 0.5984969
vt -1.329798 0.5425434
vt -0.7455902 -0.009019919
vt -0.7569544 0.9910249
vt 1.068576 0.9911674
vt 1.074258 -0.008847536
vt 1.948764 0.991084
vt 1.948764 -0.008901073
vt -1.083084 1.445924
vt -0.4994354 1.004148
vt -1.125229 -0.2303023
vt -1.928207 -0.1724107
vt -1.556656 -1.00289
vt -2.360184 -0.9394573
vt 0.6698124 1
vt 0.6698124 0
vt -0.7141981 0
vt -0.7141981 1
vt 0.3830361 -0.1512303
vt -0.5018487 -0.1512303
vt -0.5018487 0.8487697
vt 0.3830361 0.8487697
vt 0.4994354 1.004148
vt 1.098099 1.441122
vt 1.935715 -0.1748118
vt 1.125229 -0.2303023
vt 2.360184 -0.9394573
vt 1.556656 -1.00289
vt 1.122815 -0.2328396
vt 1.553317 -1.005943
vt -1.19161 -0.2251276
vt -0.7611082 -0.9982314
vt -1.559994 0
vt -1.559994 1
vt 0.7494977 -0.1512303
vt 0.7494977 0.8487697
vt 1.125991 1
vt 1.125991 0
vt -1.183501 0.8487697
vt -1.183501 -0.1512303
vt -1.618781 -0.9694899
vt -1.188279 -0.1963861
vt 0.6956442 -0.9617779
vt 1.126146 -0.1886741
vt 0.636795 2.326085
vt 0.1363068 1.558178
vt -0.6195526 2.938473
vt 0.2770538 2.913829
vt -0.9873047 3.651852
vt -0.1383667 3.668169
vt 1.311969 0
vt 1.311969 1
vt 2.885548 1
vt 2.885548 0
vt 3.688075 1
vt 3.688075 0
vt -1.651521 1
vt -1.651521 0
vt -2.340619 0
vt -2.340619 1
vt -1.319773 0
vt -2.180938 0
vt -2.180938 1
vt -1.319773 1
vt -0.1363068 1.558178
vt -0.636795 2.326085
vt -0.2770538 2.913829
vt 0.6195526 2.938473
vt 0.1383667 3.668169
vt 0.9873047 3.651852
vt -2.123703 3.659322
vt -2.539124 2.904982
vt -0.2656558 1
vt -0.2656558 0
vt -2.527743 1
vt -2.527743 0
vt 2.539124 2.904982
vt 2.123703 3.659322
vt -0.1527114 0
vt -0.1527114 1
vt 2.109376 0
vt 2.109376 1

vn -0.8273808 0 -0.5616413
vn 0.818832 0.009538354 0.5739539
vn 0.8354918 0.004769177 0.5486245
vn 0.8521515 0 0.5232952
vn 0.8672998 0 0.4977862
vn 0.9031783 0.01150032 0.4291115
vn 0.6811415 -0.6424527 0.3511422
vn 0.3405707 -0.8212264 0.1755711
vn 0 -1 0
vn -0.01921737 0 0.9998153
vn 0.9076825 0 -0.4196576
vn 0.07869805 0 -0.9968985
vn 0.5827054 0 0.8126835
vn 0 1 0
vn 0.8870795 0.008322841 0.4615309
vn 0.8863563 0.01108563 0.4628711
vn 0.8878027 0.005560053 0.4601907
vn 0.871314 0.005363019 0.4906965
vn 0.8728167 0.00268151 0.4880238
vn 0.8743194 0 0.485351
vn -0.8919371 0 -0.4521595
vn -0.8730942 0 -0.4875516
vn 0.06542028 -0.9971889 0.03653187
vn -0.003337047 0 -0.9999945
vn 0.003337047 0 0.9999945
vn -0.06542028 0.9971889 -0.03653187
vn -0.8771008 0 -0.4803064
vn -0.8888456 0 -0.4582069
vn 0.852917 0 0.5220466
vn 0.8759543 0 0.482394
vn -0.00391099 0 -0.9999924
vn 0.003910884 0 0.9999924

usemtl COLORVERDE
f 3/3/1 4/4/1 2/2/1 1/1/1
f 7/7/3 8/8/4 6/6/3 5/5/2
f 8/12/5 10/11/5 9/10/5 6/9/5
f 11/13/6 12/16/6 7/15/6 5/14/6
f 9/19/9 11/18/8 5/17/7 6/20/8
f 16/24/10 15/23/10 14/22/10 13/21/10
f 18/28/11 3/27/11 1/26/11 17/25/11
f 22/32/12 21/31/12 20/30/12 19/29/12
f 2/35/13 4/34/13 23/33/13 24/36/13
f 3/37/9 18/37/9 23/37/9 4/37/9
f 10/37/14 12/37/14 23/37/14 18/37/14
f 17/39/9 24/38/9 11/18/9 9/19/9
f 1/41/14 2/40/14 24/38/14 17/39/14
f 12/43/16 11/42/15 26/45/17 25/44/15
f 19/47/20 20/46/19 25/44/18 26/45/19
f 23/49/14 12/48/14 25/51/14 27/50/14
f 25/51/14 20/53/14 21/52/14 27/50/14
f 23/54/21 27/57/21 28/56/21 24/55/21
f 32/61/22 31/60/22 30/59/22 29/58/22
f 28/65/9 26/64/9 11/63/9 24/62/9
f 28/65/9 22/67/9 19/66/9 26/64/9
f 29/70/23 30/71/23 22/69/23 28/68/23
f 30/74/24 31/75/24 21/73/24 22/72/24
f 32/78/25 29/79/25 28/77/25 27/76/25
f 31/82/26 32/83/26 27/81/26 21/80/26
f 33/86/9 17/85/9 9/84/9 34/87/9
f 14/88/9 33/86/9 34/87/9 13/89/9
f 35/92/27 18/91/27 17/90/27 33/93/27
f 15/94/28 35/92/28 33/93/28 14/95/28
f 9/97/29 10/96/29 36/99/29 34/98/29
f 38/101/30 37/100/30 40/103/30 39/102/30
f 36/106/14 10/105/14 18/104/14 35/107/14
f 36/106/14 35/107/14 15/109/14 16/108/14
f 39/110/14 40/111/14 36/106/14 16/108/14
f 40/114/31 37/115/31 34/113/31 36/112/31
f 37/116/9 38/117/9 13/89/9 34/87/9
f 38/120/32 39/121/32 16/119/32 13/118/32

