# ProBuilder 4.5.2
# https://unity3d.com/unity/features/worldbuilding/probuilder
# 10/21/2021 2:00:56 PM

mtllib ./LetterO.mtl
o LetterO

g LetterO
v -86.97021 0 4.571673
v -87.72874 0 4.571673
v -86.97021 1 4.571673
v -87.72874 1 4.571673
v -87.72874 0 0
v -86.97021 0 0
v -87.72874 1 0
v -86.97021 1 0
v -87.72874 0 1.817835
v -87.72874 1 1.817835
v -86.97021 0 1.817835
v -86.97021 1 1.817835
v -86.97021 1 2.505676
v -86.97021 0 2.505676
v -87.72874 1 2.505676
v -87.72874 0 2.505676
v -89.30939 0 4.571673
v -89.30939 0 4.198152
v -89.30939 1 4.198152
v -89.30939 1 4.571673
v -87.72874 0 4.198152
v -87.72874 1 4.198152
v -86.97021 1 4.039025
v -86.97021 0 4.039025
v -88.61014 0 4.198152
v -88.70792 0 4.571673
v -88.61014 1 4.198152
v -88.70792 1 -0.0210551
v -89.30939 1 -0.0210551
v -89.30939 0 -0.0210551
v -88.70792 0 -0.0210551
v -88.70792 1 4.571673
v -88.61014 1 0.4332876
v -88.61014 0 0.4332876
v -87.61465 1 0.4332876
v -87.61945 1 -0.0005717278
v -87.61945 0 -0.0005717278
v -87.61465 0 0.4332876
v -89.30939 1 0.7131243
v -89.30939 0 0.7131243

vt 0.2297821 0
vt -0.5287399 0
vt 0.2297821 1
vt -0.5287399 1
vt 0.5287399 0
vt -0.2297821 0
vt 0.5287399 1
vt -0.2297821 1
vt 0.8178351 0
vt -1 0
vt -1 1
vt 0.8178351 1
vt 1 0
vt -0.8178351 0
vt -0.8178351 1
vt 1 1
vt 0.5287399 0.8178351
vt 0.5287399 -1
vt -0.2297821 -1
vt -0.2297821 0.8178351
vt 0.2297821 -1
vt -0.5287399 -1
vt -0.5287399 0.8178351
vt 0.2297821 0.8178351
vt -1.505676 1
vt -1.505676 0
vt -0.2297821 1.505676
vt 0.5287399 1.505676
vt -0.5287399 1.505676
vt 0.2297821 1.505676
vt 1.505676 0
vt 1.505676 1
vt 3.571673 0
vt 3.198152 0
vt 3.198152 1
vt 3.571673 1
vt -3.571673 0
vt -3.571673 1
vt -3.039025 1
vt -3.039025 0
vt -0.2297821 3.039025
vt 0.5287399 3.198152
vt -0.2297821 3.571673
vt 0.5287399 3.571673
vt -0.5287399 3.198152
vt 0.2297821 3.039025
vt -0.5287399 3.571673
vt 0.2297821 3.571673
vt -1.410141 3.198152
vt -1.507927 3.571673
vt -2.10939 3.198152
vt -2.10939 3.571673
vt 1.410141 1
vt 1.410141 0
vt 1.507927 1
vt 2.10939 1
vt 2.10939 0
vt 1.507927 0
vt -1.507927 0
vt -1.507927 1
vt -2.10939 0
vt -2.10939 1
vt 1.507927 3.571673
vt 1.410141 3.198152
vt 2.10939 3.571673
vt 2.10939 3.198152
vt -3.198152 0
vt -3.198152 1
vt 0.5667124 1
vt 0.5667124 0
vt 0.5712638 1
vt 1.00515 1
vt 1.00515 0
vt 0.5712638 0
vt 2.10939 -0.2868757
vt 1.410141 -0.5667124
vt 2.10939 -1.021055
vt 1.507927 -1.021055
vt -0.2868757 0
vt -0.2868757 1
vt -1.021055 0
vt -1.021055 1
vt -1.410141 -0.5667124
vt -2.10939 -0.2868757
vt -1.507927 -1.021055
vt -2.10939 -1.021055
vt -1.410141 0
vt -1.410141 1
vt -0.41465 0
vt -0.41465 1
vt 0.41465 -0.5667124
vt 0.4194489 -1.000572
vt 1.526871 1
vt 1.526871 0
vt 0.4382004 1
vt 0.4382004 0
vt -0.4194489 -1.000572
vt -0.41465 -0.5667124

vn 0 0 1
vn 0 0 -1
vn -1 0 0
vn 1 0 0
vn 0 1 0
vn 0 -1 0
vn 0.9999388 0 -0.01106026
vn 0.01881503 0 -0.999823

usemtl COLORVERDE
f 3/3/1 4/4/1 2/2/1 1/1/1
f 7/7/2 8/8/2 6/6/2 5/5/2
f 10/12/3 7/11/3 5/10/3 9/9/3
f 6/13/4 8/16/4 12/15/4 11/14/4
f 6/21/6 11/24/6 9/23/6 5/22/6
f 14/26/4 11/14/4 12/15/4 13/25/4
f 9/23/6 11/24/6 14/30/6 16/29/6
f 15/32/3 10/12/3 9/9/3 16/31/3
f 20/36/3 19/35/3 18/34/3 17/33/3
f 22/35/3 15/32/3 16/31/3 21/34/3
f 24/40/4 23/39/4 3/38/4 1/37/4
f 24/40/4 14/26/4 13/25/4 23/39/4
f 14/30/6 24/46/6 21/45/6 16/29/6
f 24/46/6 1/48/6 2/47/6 21/45/6
f 21/45/6 2/47/6 26/50/6 25/49/6
f 25/49/6 26/50/6 17/52/6 18/51/6
f 25/54/2 27/53/2 22/7/2 21/5/2
f 30/57/2 29/56/2 28/55/2 31/58/2
f 4/4/1 32/60/1 26/59/1 2/2/1
f 32/60/1 20/62/1 17/61/1 26/59/1
f 32/63/5 4/44/5 22/42/5 27/64/5
f 20/65/5 32/63/5 27/64/5 19/66/5
f 34/70/4 33/69/4 27/68/4 25/67/4
f 37/73/7 36/72/7 35/71/7 38/74/7
f 19/66/5 27/64/5 33/76/5 39/75/5
f 39/75/5 33/76/5 28/78/5 29/77/5
f 19/35/3 39/80/3 40/79/3 18/34/3
f 39/80/3 29/82/3 30/81/3 40/79/3
f 34/83/6 25/49/6 18/51/6 40/84/6
f 31/85/6 34/83/6 40/84/6 30/86/6
f 38/89/1 35/90/1 33/88/1 34/87/1
f 35/91/5 36/92/5 28/78/5 33/76/5
f 36/95/8 37/96/8 31/94/8 28/93/8
f 37/97/6 38/98/6 34/83/6 31/85/6

usemtl COLORVERDE
f 10/17/5 12/20/5 8/19/5 7/18/5
f 15/28/5 13/27/5 12/20/5 10/17/5
f 22/42/5 23/41/5 13/27/5 15/28/5
f 4/44/5 3/43/5 23/41/5 22/42/5

