# ProBuilder 4.5.2
# https://unity3d.com/unity/features/worldbuilding/probuilder
# 10/21/2021 2:00:10 PM

mtllib ./LetterL.mtl
o LetterL

g LetterL
v -66.64 0 4.571673
v -67.64 0 4.571673
v -66.64 1 4.571673
v -67.64 1 4.571673
v -67.64 0 0
v -66.64 0 0
v -67.64 1 0
v -66.64 1 0
v -67.64 0 2.505676
v -67.64 1 2.505676
v -66.64 1 2.505676
v -66.64 0 2.505676
v -66.64 1 1.817835
v -66.64 0 1.817835
v -67.64 1 1.817835
v -67.64 0 1.817835
v -67.64 0 0.8944227
v -67.64 1 0.8944227
v -69.73907 0 0.8944227
v -69.73907 0 0
v -69.73907 1 0
v -69.73907 1 0.8944227
v -66.64 1 0.8944227
v -66.64 0 0.8944227

vt 0 0
vt -1 0
vt 0 1
vt -1 1
vt 1 0
vt 1 1
vt 3.571673 0
vt 1.505676 0
vt 1.505676 1
vt 3.571673 1
vt -3.571673 0
vt -3.571673 1
vt -1.505676 1
vt -1.505676 0
vt -0.8178351 1
vt -0.8178351 0
vt 1 0.8178351
vt 0 0.8178351
vt 0 1.505676
vt 1 1.505676
vt 0 3.571673
vt 1 3.571673
vt -1 0.8178351
vt -1 1.505676
vt -1 3.571673
vt 0.8178351 1
vt 0.8178351 0
vt -0.1055773 0
vt -0.1055773 1
vt 0.1055773 1
vt 0.1055773 0
vt 1 -1
vt 0 -1
vt 0 -0.1055773
vt 1 -0.1055773
vt -1 -1
vt -1 -0.1055773
vt -3.099068 -0.1055773
vt -3.099068 -1
vt -3.099068 1
vt -3.099068 0
vt 3.099068 0
vt 3.099068 1
vt 3.099068 -1
vt 3.099068 -0.1055773

vn 0 0 1
vn 0 0 -1
vn -1 0 0
vn 1 0 0
vn 0 1 0
vn 0 -1 0

usemtl COLORVERDE
f 3/3/1 4/4/1 2/2/1 1/1/1
f 7/6/2 8/3/2 6/1/2 5/5/2
f 4/10/3 10/9/3 9/8/3 2/7/3
f 12/14/4 11/13/4 3/12/4 1/11/4
f 12/14/4 14/16/4 13/15/4 11/13/4
f 16/23/6 14/18/6 12/19/6 9/24/6
f 12/19/6 1/21/6 2/25/6 9/24/6
f 10/9/3 15/26/3 16/27/3 9/8/3
f 15/26/3 18/29/3 17/28/3 16/27/3
f 22/29/3 21/4/3 20/2/3 19/28/3
f 14/16/4 24/31/4 23/30/4 13/15/4
f 24/31/4 6/5/4 8/6/4 23/30/4
f 5/36/6 6/33/6 24/34/6 17/37/6
f 17/37/6 24/34/6 14/18/6 16/23/6
f 19/38/6 20/39/6 5/36/6 17/37/6
f 22/40/1 19/41/1 17/2/1 18/4/1
f 20/42/2 21/43/2 7/6/2 5/5/2
f 21/44/5 22/45/5 18/35/5 7/32/5

usemtl COLORVERDE
f 10/20/5 11/19/5 13/18/5 15/17/5
f 4/22/5 3/21/5 11/19/5 10/20/5
f 18/35/5 23/34/5 8/33/5 7/32/5
f 15/17/5 13/18/5 23/34/5 18/35/5

