# ProBuilder 4.5.2
# https://unity3d.com/unity/features/worldbuilding/probuilder
# 10/21/2021 1:55:10 PM

mtllib ./LetterC.mtl
o LetterC

g LetterI (1)
v -12 0 4.571673
v -13 0 4.571673
v -12 1 4.571673
v -13 1 4.571673
v -13 0 0
v -12 0 0
v -13 1 0
v -12 1 0
v -12 1 2.505676
v -12 1 1.817835
v -12 0 1.817835
v -12 0 2.505676
v -13 1 1.817835
v -13 1 2.505676
v -13 0 1.817835
v -13 0 2.505676
v -15.24339 0 4.571673
v -15.24339 0 3.68546
v -15.24339 1 3.68546
v -15.24339 1 4.571673
v -13 0 3.68546
v -13 1 3.68546
v -12 1 3.68546
v -12 0 3.68546
v -14.54868 0 3.68546
v -14.54868 0 4.571673
v -14.54868 1 3.68546
v -14.54868 1 3.18546
v -15.24339 1 3.18546
v -15.24339 0 3.18546
v -14.54868 0 3.18546
v -14.54868 1 4.571673
v -13 0 0.7708015
v -13 1 0.7708015
v -15.1851 0 0.7708015
v -15.1851 0 0
v -15.1851 1 0
v -15.1851 1 0.7708015
v -12 1 0.7708015
v -12 0 0.7708015
v -14.50624 0 0
v -14.50624 0 0.7708015
v -14.50624 1 0.7708015
v -14.50624 0 1.270802
v -15.1851 0 1.270802
v -15.1851 1 1.270802
v -14.50624 1 1.270802
v -14.50624 1 0

vt 0 0
vt -1 0
vt 0 1
vt -1 1
vt 1 0
vt 1 1
vt -1.505676 1
vt -0.8178351 1
vt -0.8178351 0
vt -1.505676 0
vt 1 0.8178351
vt 0 0.8178351
vt 0 1.505676
vt 1 1.505676
vt -1 0.8178351
vt -1 1.505676
vt 0.8178351 1
vt 0.8178351 0
vt 1.505676 0
vt 1.505676 1
vt 3.571673 0
vt 2.68546 0
vt 2.68546 1
vt 3.571673 1
vt -3.571673 0
vt -3.571673 1
vt -2.68546 1
vt -2.68546 0
vt 0 2.68546
vt 1 2.68546
vt 0 3.571673
vt 1 3.571673
vt -1 2.68546
vt -1 3.571673
vt -2.548683 2.68546
vt -2.548683 3.571673
vt -3.243395 2.68546
vt -3.243395 3.571673
vt 2.548683 1
vt 2.548683 0
vt 3.243395 1
vt 3.243395 0
vt -2.548683 0
vt -2.548683 1
vt -3.243395 0
vt -3.243395 1
vt 2.548683 3.571673
vt 2.548683 2.68546
vt 3.243395 3.571673
vt 3.243395 2.68546
vt -2.18546 0
vt -2.18546 1
vt 2.548683 2.18546
vt 3.243395 2.18546
vt 2.18546 1
vt 2.18546 0
vt -3.243395 2.18546
vt -2.548683 2.18546
vt -0.2291985 0
vt -0.2291985 1
vt 0.2291985 1
vt 0.2291985 0
vt 1 -1
vt 0 -1
vt 0 -0.2291985
vt 1 -0.2291985
vt -1 -1
vt -1 -0.2291985
vt -2.506237 -1
vt -2.506237 -0.2291985
vt -3.185097 -1
vt -3.185097 -0.2291985
vt -2.506237 0
vt -2.506237 1
vt -3.185097 0
vt -3.185097 1
vt 2.506237 1
vt 2.506237 0
vt 3.185097 1
vt 3.185097 0
vt 2.506237 -0.2291985
vt 2.506237 -1
vt 3.185097 -0.2291985
vt 3.185097 -1
vt -2.506237 0.2708015
vt -3.185097 0.2708015
vt 0.2708015 0
vt 0.2708015 1
vt -0.2708015 1
vt -0.2708015 0
vt 3.185097 0.2708015
vt 2.506237 0.2708015

vn 0 0 1
vn 0 0 -1
vn 1 0 0
vn 0 1 0
vn 0 -1 0
vn -1 0 0

usemtl COLORVERDE
f 3/3/1 4/4/1 2/2/1 1/1/1
f 7/6/2 8/3/2 6/1/2 5/5/2
f 12/10/3 11/9/3 10/8/3 9/7/3
f 15/15/5 11/12/5 12/13/5 16/16/5
f 14/20/6 13/17/6 15/18/6 16/19/6
f 20/24/6 19/23/6 18/22/6 17/21/6
f 22/23/6 14/20/6 16/19/6 21/22/6
f 24/28/3 23/27/3 3/26/3 1/25/3
f 24/28/3 12/10/3 9/7/3 23/27/3
f 16/16/5 12/13/5 24/29/5 21/33/5
f 24/29/5 1/31/5 2/34/5 21/33/5
f 25/35/5 21/33/5 2/34/5 26/36/5
f 18/37/5 25/35/5 26/36/5 17/38/5
f 25/40/2 27/39/2 22/6/2 21/5/2
f 30/42/2 29/41/2 28/39/2 31/40/2
f 4/4/1 32/44/1 26/43/1 2/2/1
f 32/44/1 20/46/1 17/45/1 26/43/1
f 32/47/4 4/32/4 22/30/4 27/48/4
f 20/49/4 32/47/4 27/48/4 19/50/4
f 31/51/3 28/52/3 27/27/3 25/28/3
f 28/53/4 29/54/4 19/50/4 27/48/4
f 29/55/6 30/56/6 18/22/6 19/23/6
f 30/57/5 31/58/5 25/35/5 18/37/5
f 13/17/6 34/60/6 33/59/6 15/18/6
f 38/60/6 37/4/6 36/2/6 35/59/6
f 11/9/3 40/62/3 39/61/3 10/8/3
f 40/62/3 6/5/3 8/6/3 39/61/3
f 5/67/5 6/64/5 40/65/5 33/68/5
f 33/68/5 40/65/5 11/12/5 15/15/5
f 5/67/5 33/68/5 42/70/5 41/69/5
f 41/69/5 42/70/5 35/72/5 36/71/5
f 34/4/1 43/74/1 42/73/1 33/2/1
f 47/74/1 46/76/1 45/75/1 44/73/1
f 41/78/2 48/77/2 7/6/2 5/5/2
f 36/80/2 37/79/2 48/77/2 41/78/2
f 43/81/4 34/66/4 7/63/4 48/82/4
f 38/83/4 43/81/4 48/82/4 37/84/4
f 44/85/5 45/86/5 35/72/5 42/70/5
f 45/87/6 46/88/6 38/60/6 35/59/6
f 47/89/3 44/90/3 42/62/3 43/61/3
f 46/91/4 47/92/4 43/81/4 38/83/4

usemtl COLORVERDE
f 14/14/4 9/13/4 10/12/4 13/11/4
f 22/30/4 23/29/4 9/13/4 14/14/4
f 4/32/4 3/31/4 23/29/4 22/30/4
f 34/66/4 39/65/4 8/64/4 7/63/4
f 13/11/4 10/12/4 39/65/4 34/66/4

