# ProBuilder 4.5.2
# https://unity3d.com/unity/features/worldbuilding/probuilder
# 10/21/2021 2:05:25 PM

mtllib ./LetterV.mtl
o LetterV

g LetterV
v -126.9336 0 1.022714
v -126.6842 0 0.5584438
v -126.9336 1 1.022714
v -126.6842 1 0.5584438
v -126.0213 0 0.4694954
v -125.6597 0 1.047745
v -126.0213 1 0.4694954
v -125.6597 1 1.047745
v -123.9861 0 4.663861
v -124.9021 0 4.663861
v -124.9021 1 4.663861
v -123.9861 1 4.663861
v -128.0541 0 4.638913
v -128.5456 0 4.683913
v -128.5456 1 4.683913
v -128.0541 1 4.638913
v -126.3779 0 0
v -126.3779 1 0
v -126.3779 1 1
v -126.3779 0 1

vt 0.6039068 0
vt 0.0768622 0
vt 0.6039068 1
vt 0.0768622 1
vt 0.6201673 0
vt -0.06186465 0
vt 0.6201673 1
vt -0.06186465 1
vt 1.713882 0
vt 0.7978592 0
vt 0.7978592 1
vt 1.713882 1
vt -2.676047 0
vt -3.169619 0
vt -3.169619 1
vt -2.676047 1
vt 0.9488374 0
vt 0.6021517 0
vt 0.6021517 1
vt 0.9488374 1
vt 0.2812259 0
vt 0.2812259 1
vt -0.04032898 0.04774487
vt 0.6779404 0
vt 0.6779404 -1
vt 0.3213272 -0.5305046
vt 1.233635 0.02271366
vt 0.9841766 -0.4415562
vt -0.3213272 -0.5305046
vt -0.6779404 -1
vt -0.6779404 0
vt 0.04032898 0.04774487
vt -0.9841766 -0.4415562
vt -1.233635 0.02271366
vt 1.713882 3.663861
vt 0.7978592 3.663861
vt -0.2532973 0
vt -0.2532973 1
vt 3.696622 0
vt 3.696622 1
vt -0.06026788 1
vt -0.06026788 0
vt -4.044873 1
vt -4.044873 0
vt -0.7978592 3.663861
vt -1.713882 3.663861
vt -2.35408 3.638913
vt -2.845596 3.683913
vt 0.5178875 0
vt 0.5178875 1
vt 4.518238 0
vt 4.518238 1
vt -0.2836279 1
vt -0.2836279 0
vt -4.290014 1
vt -4.290014 0
vt 2.845596 3.683913
vt 2.35408 3.638913

vn -0.8808931 0 -0.4733154
vn 0.8478333 0 -0.5302628
vn 0 0 1
vn 0.09117326 0 0.9958351
vn -0.8768171 0 -0.4808241
vn 0.7963284 0 -0.6048646
vn 0 1 0
vn 0 -1 0
vn -0.9275787 0 0.3736278
vn 0.9075219 0 -0.4200048
vn -0.9152198 0 -0.4029551
vn 0.908278 0 0.418367

usemtl COLORVERDE
f 3/3/1 4/4/1 2/2/1 1/1/1
f 7/7/2 8/8/2 6/6/2 5/5/2
f 12/12/3 11/11/3 10/10/3 9/9/3
f 16/16/4 15/15/4 14/14/4 13/13/4
f 2/17/5 4/20/5 18/19/5 17/18/5
f 17/18/6 18/19/6 7/22/6 5/21/6
f 19/24/7 8/23/7 7/26/7 18/25/7
f 3/27/7 19/24/7 18/25/7 4/28/7
f 5/29/8 6/32/8 20/31/8 17/30/8
f 17/30/8 20/31/8 1/34/8 2/33/8
f 9/35/8 10/36/8 20/31/8 6/32/8
f 10/39/9 11/40/9 19/38/9 20/37/9
f 12/43/10 9/44/10 6/42/10 8/41/10
f 11/45/7 12/46/7 8/23/7 19/24/7
f 13/47/8 14/48/8 1/34/8 20/31/8
f 14/51/11 15/52/11 3/50/11 1/49/11
f 16/55/12 13/56/12 20/54/12 19/53/12
f 15/57/7 16/58/7 19/24/7 3/27/7

